<?xml version="1.0" encoding="utf-8"?>
<!-- Generator: Adobe Illustrator 25.0.0, SVG Export Plug-In . SVG Version: 6.00 Build 0)  -->
<svg version="1.1" id="Layer_1" xmlns="http://www.w3.org/2000/svg" xmlns:xlink="http://www.w3.org/1999/xlink" x="0px" y="0px"
	 viewBox="0 0 512 512" style="enable-background:new 0 0 512 512;" xml:space="preserve">
<style type="text/css">
	.st0{opacity:0.5;fill:url(#SVGID_1_);}
	.st1{fill:#4D4D4D;}
</style>
<g>
	
		<radialGradient id="SVGID_1_" cx="16702.3438" cy="-133.4421" r="60.3639" gradientTransform="matrix(-4.900000e-03 -0.3467 2.946 -0.0358 816.5846 6223.9287)" gradientUnits="userSpaceOnUse">
		<stop  offset="0" style="stop-color:#000000"/>
		<stop  offset="7.380247e-03" style="stop-color:#090909"/>
		<stop  offset="0.0477" style="stop-color:#373737"/>
		<stop  offset="0.0931" style="stop-color:#626262"/>
		<stop  offset="0.1419" style="stop-color:#888888"/>
		<stop  offset="0.195" style="stop-color:#A8A8A8"/>
		<stop  offset="0.2537" style="stop-color:#C4C4C4"/>
		<stop  offset="0.32" style="stop-color:#DADADA"/>
		<stop  offset="0.3974" style="stop-color:#EBEBEB"/>
		<stop  offset="0.4931" style="stop-color:#F6F6F6"/>
		<stop  offset="0.6274" style="stop-color:#FDFDFD"/>
		<stop  offset="1" style="stop-color:#FFFFFF"/>
	</radialGradient>
	<path class="st0" d="M341.37,417.04c98.15-1.12,177.68,7.24,177.83,18.83c0.17,11.47-79.21,21.86-177.23,23.09
		c-98.01,1.16-177.68-7.2-177.91-18.82C163.96,428.64,243.31,418.42,341.37,417.04z"/>
	<g>
		<g>
			<g>
				<path class="st1" d="M91.03,195.5c-0.24-0.02-0.46-0.15-0.59-0.36c-0.15-0.24-0.16-0.54-0.01-0.78L151.18,87.7
					c0.17-0.3,0.5-0.44,0.84-0.37c0.33,0.08,0.57,0.36,0.6,0.7l7.26,103.01c0.01,0.21-0.06,0.41-0.19,0.56
					c-0.14,0.15-0.33,0.25-0.54,0.26l-68.01,3.64C91.1,195.5,91.07,195.5,91.03,195.5z M151.26,90.67L92.46,193.89l65.82-3.53
					L151.26,90.67z"/>
			</g>
			<g>
				<path class="st1" d="M159.04,191.85c-0.06,0-0.14-0.02-0.2-0.04c-0.28-0.11-0.48-0.37-0.5-0.67l-7.26-103.01
					c-0.02-0.32,0.15-0.62,0.45-0.75c0.29-0.14,0.63-0.08,0.86,0.15l55.16,54.33c0.3,0.3,0.31,0.79,0.01,1.09l-47.91,48.67
					C159.49,191.79,159.27,191.87,159.04,191.85z M152.76,90.06l7,99.27l46.17-46.91L152.76,90.06z"/>
			</g>
			<g>
				<path class="st1" d="M209.89,233.76c-0.15-0.01-0.3-0.07-0.43-0.17l-50.84-41.91c-0.16-0.14-0.27-0.34-0.28-0.55
					c-0.01-0.21,0.07-0.43,0.22-0.58l47.91-48.68c0.22-0.22,0.54-0.29,0.83-0.18c0.29,0.11,0.48,0.38,0.49,0.69l2.94,90.59
					c0.01,0.3-0.16,0.58-0.43,0.71C210.16,233.75,210.02,233.78,209.89,233.76z M160.24,191.02l48.88,40.3l-2.83-87.09
					L160.24,191.02z"/>
			</g>
			<g>
				<path class="st1" d="M190.94,251.77c-0.02,0-0.04-0.01-0.06-0.01c-0.24-0.04-0.44-0.18-0.56-0.4l-31.89-59.92
					c-0.17-0.33-0.1-0.73,0.19-0.96c0.29-0.23,0.69-0.23,0.98,0l50.84,41.91c0.17,0.14,0.27,0.35,0.28,0.57
					c0.01,0.22-0.08,0.44-0.24,0.59l-18.95,18.01C191.37,251.71,191.15,251.79,190.94,251.77z M161.61,194.14l29.59,55.61
					l17.59-16.71L161.61,194.14z"/>
			</g>
			<g>
				<path class="st1" d="M368.05,170.28c-0.2-0.02-0.38-0.11-0.52-0.26l-39.73-45.13c-0.15-0.17-0.22-0.39-0.18-0.62
					c0.03-0.22,0.16-0.42,0.35-0.54l39.64-25.22c0.24-0.15,0.54-0.16,0.78-0.03c0.25,0.13,0.41,0.4,0.4,0.67l0.09,70.35
					c0,0.32-0.2,0.61-0.5,0.72C368.27,170.28,368.15,170.29,368.05,170.28z M329.55,124.55l37.79,42.92l-0.09-66.9L329.55,124.55z"
					/>
			</g>
			<g>
				<path class="st1" d="M263.4,147.1c-0.04,0-0.08-0.01-0.13-0.02c-0.23-0.06-0.43-0.22-0.53-0.45l-19.9-47.45
					c-0.12-0.29-0.05-0.63,0.18-0.85c0.23-0.23,0.57-0.28,0.86-0.14l49.64,23.39c0.24,0.11,0.4,0.34,0.43,0.6
					c0.04,0.26-0.07,0.53-0.28,0.69l-29.73,24.06C263.79,147.06,263.6,147.12,263.4,147.1z M245.04,100.44l18.74,44.65l27.97-22.64
					L245.04,100.44z"/>
			</g>
			<g>
				<path class="st1" d="M335.3,427.77c-0.19-0.01-0.37-0.09-0.5-0.24l-8.55-9.05c-0.2-0.22-0.26-0.52-0.17-0.79
					c0.09-0.28,0.33-0.47,0.62-0.5l24.73-3.18c0.42-0.05,0.79,0.23,0.86,0.64c1.06,6.22,1.89,10.05,1.9,10.09
					c0.05,0.21,0,0.44-0.13,0.61c-0.13,0.18-0.32,0.29-0.53,0.32l-18.08,2.1C335.41,427.77,335.35,427.77,335.3,427.77z
					 M328.41,418.51l7.25,7.69l16.86-1.98c-0.29-1.37-0.89-4.4-1.61-8.6L328.41,418.51z"/>
			</g>
			<g>
				<path class="st1" d="M151.78,88.85c-0.04,0-0.09-0.01-0.13-0.02l-11.09-2.93c-0.27-0.07-0.49-0.29-0.55-0.57
					c-0.06-0.27,0.03-0.57,0.24-0.75c2.26-2.02,4.69-3.85,7.21-5.47c0.18-0.12,0.41-0.15,0.63-0.09c0.21,0.06,0.39,0.21,0.49,0.41
					l3.97,8.32c0.13,0.27,0.09,0.59-0.1,0.82C152.28,88.77,152.03,88.87,151.78,88.85z M142.36,84.78l8.07,2.13l-2.87-6.02
					C145.76,82.08,144.02,83.38,142.36,84.78z"/>
			</g>
			<g>
				<path class="st1" d="M368.05,170.28c-0.18-0.02-0.35-0.09-0.48-0.22c-0.14-0.14-0.23-0.34-0.23-0.55l-0.09-70.34
					c0-0.32,0.2-0.61,0.5-0.72c0.3-0.11,0.64-0.03,0.85,0.21l49.11,55.98c0.08,0.1,0.14,0.21,0.17,0.34
					c0.27,1.19,0.47,2.3,0.59,3.37c0.25,2.1,0.27,4.25,0.07,6.38c1.53,1.08,2.94,2.39,4.17,3.89c0.19,0.23,0.23,0.55,0.1,0.82
					c-0.12,0.27-0.39,0.44-0.69,0.45l-54.01,0.4C368.09,170.28,368.07,170.28,368.05,170.28z M368.79,101.22l0.09,67.52l51.53-0.38
					c-0.96-0.99-2-1.86-3.11-2.61c-0.24-0.16-0.37-0.44-0.34-0.73c0.24-2.16,0.23-4.35-0.02-6.49c-0.12-0.96-0.29-1.95-0.52-3.01
					L368.79,101.22z"/>
			</g>
			<g>
				<path class="st1" d="M187.3,286.18c-0.01,0-0.02,0-0.03,0l-20.52-2.57c-0.21-0.03-0.41-0.15-0.54-0.33
					c-3.83-5.51-6.74-11.57-8.64-18.04c-0.11-0.38,0.08-0.77,0.44-0.93l32.68-14.01c0.25-0.11,0.54-0.07,0.76,0.09
					c0.22,0.16,0.34,0.42,0.31,0.7l-3.63,34.4c-0.02,0.21-0.13,0.39-0.29,0.52C187.69,286.14,187.5,286.19,187.3,286.18z
					 M167.28,282.12l19.4,2.43l3.41-32.32l-30.84,13.23C161.08,271.41,163.78,277.01,167.28,282.12z"/>
			</g>
			<g>
				<path class="st1" d="M326.54,418.87c-0.1-0.01-0.19-0.03-0.28-0.08c-0.26-0.13-0.43-0.39-0.43-0.68l0.73-0.01l-0.73-0.13
					c0-0.22,0.09-0.47,0.27-0.62c0.17-0.15,0.39-0.24,0.62-0.2l0.22,0.03c0.3,0.05,0.54,0.28,0.62,0.58c0.07,0.3-0.04,0.62-0.29,0.8
					l-0.21,0.16C326.9,418.83,326.72,418.88,326.54,418.87z"/>
			</g>
			<g>
				<path class="st1" d="M206.95,143.18c-0.18-0.01-0.35-0.09-0.48-0.22l-55.16-54.33c-0.27-0.27-0.31-0.69-0.08-1
					c0.22-0.31,0.64-0.41,0.97-0.24l69.71,35.4c0.2,0.11,0.35,0.3,0.4,0.52c0.05,0.22,0,0.46-0.14,0.64l-14.54,18.93
					c-0.13,0.17-0.33,0.28-0.55,0.3C207.02,143.18,206.99,143.18,206.95,143.18z M155.92,91.01l51.01,50.24l13.44-17.5L155.92,91.01
					z"/>
			</g>
			<g>
				<path class="st1" d="M206.95,143.18c-0.28-0.02-0.52-0.19-0.64-0.45c-0.12-0.26-0.08-0.56,0.09-0.79l14.54-18.93
					c0.23-0.3,0.65-0.39,0.98-0.21l41.92,22.85c0.32,0.17,0.47,0.55,0.37,0.89c-0.1,0.35-0.43,0.58-0.79,0.55L206.95,143.18
					C206.96,143.18,206.95,143.18,206.95,143.18z M221.76,124.47l-13.26,17.26l51.51,3.59L221.76,124.47z"/>
			</g>
			<g>
				<path class="st1" d="M221.49,124.25c-0.09-0.01-0.18-0.03-0.27-0.07c-0.3-0.14-0.48-0.47-0.43-0.81l5.41-35.57
					c0.04-0.26,0.21-0.48,0.45-0.59c0.24-0.11,0.52-0.08,0.74,0.06l16.6,10.98c0.19,0.12,0.31,0.32,0.34,0.54
					c0.03,0.22-0.04,0.45-0.19,0.61l-22.01,24.59C221.96,124.18,221.72,124.27,221.49,124.25z M227.54,89.21l-4.84,31.83l19.69-22
					L227.54,89.21z"/>
			</g>
			<g>
				<path class="st1" d="M263.4,147.1c-0.1-0.01-0.21-0.03-0.31-0.09l-41.91-22.86c-0.21-0.11-0.35-0.31-0.39-0.54
					c-0.04-0.23,0.03-0.47,0.19-0.65l22.01-24.59c0.17-0.2,0.43-0.29,0.7-0.25c0.26,0.04,0.48,0.22,0.58,0.46l19.91,47.45
					c0.13,0.3,0.05,0.65-0.19,0.87C263.82,147.05,263.61,147.12,263.4,147.1z M222.77,123.27l39.13,21.34l-18.59-44.3L222.77,123.27
					z"/>
			</g>
			<g>
				<path class="st1" d="M203.68,308.71c-0.03,0-0.07-0.01-0.11-0.02c-1.21-0.28-2.41-0.61-3.59-0.96
					c-0.19-0.05-0.34-0.17-0.44-0.34L186.7,285.8c-0.16-0.27-0.14-0.62,0.06-0.87c0.2-0.24,0.53-0.35,0.84-0.25l24.88,8.09
					c0.22,0.07,0.4,0.24,0.48,0.46c0.08,0.22,0.06,0.46-0.06,0.66l-8.5,14.43C204.26,308.59,203.97,308.73,203.68,308.71z
					 M200.7,306.34c0.88,0.26,1.77,0.5,2.67,0.72l7.72-13.12l-22.02-7.17L200.7,306.34z"/>
			</g>
			<g>
				<path class="st1" d="M425.65,192.26c-0.07-0.01-0.14-0.02-0.21-0.05l-57.61-21.98c-0.35-0.13-0.55-0.49-0.48-0.86
					c0.07-0.37,0.38-0.63,0.75-0.63l54-0.4c0.23,0,0.46,0.11,0.6,0.28c2.59,3.14,4.2,6.92,4.68,10.93c0.24,2.07,0.17,4.17-0.21,6.25
					c0.11,0.17,0.18,0.37,0.14,0.54l-0.84,5.27c-0.04,0.23-0.17,0.43-0.37,0.55C425.96,192.24,425.81,192.27,425.65,192.26z
					 M372.21,170.25l52.9,20.18l0.64-4c-0.11-0.18-0.19-0.38-0.16-0.53c0.41-2.05,0.5-4.13,0.26-6.16c-0.42-3.6-1.83-7-4.11-9.85
					L372.21,170.25z"/>
			</g>
			<g>
				<path class="st1" d="M429.98,196.54c-0.18-0.01-0.35-0.09-0.48-0.22l-4.33-4.28c-0.18-0.17-0.26-0.42-0.22-0.67l0.84-5.27
					c0.04-0.26,0.22-0.49,0.46-0.58c0.24-0.11,0.53-0.07,0.75,0.08c1.24,0.89,2.39,1.93,3.43,3.1c0.12,0.14,0.19,0.31,0.2,0.49
					l0.18,6.57c0.01,0.31-0.17,0.6-0.46,0.73C430.23,196.53,430.1,196.55,429.98,196.54z M426.54,191.22l2.68,2.65l-0.11-4.37
					c-0.63-0.68-1.29-1.31-1.99-1.89L426.54,191.22z"/>
			</g>
			<g>
				<path class="st1" d="M85.11,251.23c-0.21-0.02-0.4-0.12-0.54-0.29l-25.02-31.31c-0.08-0.11-0.14-0.24-0.16-0.37l-0.07-0.49
					c-0.04-0.28-0.08-0.56-0.12-0.85c-0.69-5.93-0.48-11.92,0.63-17.78c0.06-0.31,0.31-0.56,0.62-0.62l30.51-5.56
					c0.24-0.04,0.49,0.03,0.66,0.19c0.18,0.17,0.27,0.41,0.24,0.65l-5.92,55.73c-0.03,0.31-0.25,0.57-0.55,0.66
					C85.29,251.23,85.2,251.24,85.11,251.23z M60.89,218.84l23.71,29.68l5.62-52.84l-28.97,5.28c-1,5.55-1.17,11.2-0.52,16.8
					c0.03,0.27,0.07,0.54,0.11,0.8L60.89,218.84z"/>
			</g>
			<g>
				<path class="st1" d="M326.43,428.81c-0.17-0.01-0.33-0.08-0.46-0.2c-0.17-0.15-0.26-0.37-0.25-0.59
					c0.09-3.26,0.12-6.49,0.1-9.91c0-0.24,0.11-0.47,0.31-0.62l0.21-0.16c0.19-0.14,0.43-0.19,0.65-0.13
					c0.23,0.06,0.42,0.22,0.51,0.43l4.3,9.56c0.1,0.22,0.09,0.48-0.03,0.69c-0.12,0.21-0.34,0.36-0.58,0.39l-4.62,0.54
					C326.53,428.81,326.48,428.81,326.43,428.81z M327.37,421.07c-0.01,2.07-0.03,4.09-0.09,6.11l2.69-0.32L327.37,421.07z"/>
			</g>
			<g>
				<path class="st1" d="M331.05,428.27c-0.28-0.02-0.52-0.19-0.64-0.45l-4.31-9.56c-0.16-0.34-0.04-0.74,0.27-0.96
					c0.31-0.21,0.73-0.16,0.99,0.12l8.56,9.05c0.2,0.22,0.26,0.52,0.16,0.79c-0.1,0.27-0.35,0.47-0.64,0.5l-4.25,0.5
					C331.15,428.27,331.1,428.27,331.05,428.27z M329.39,421.79l2.2,4.88l2.16-0.26L329.39,421.79z"/>
			</g>
			<g>
				<path class="st1" d="M429.98,196.54c-0.11-0.01-0.22-0.04-0.31-0.09c-0.24-0.14-0.38-0.38-0.39-0.65l-0.17-6.57
					c-0.01-0.32,0.18-0.61,0.48-0.74c0.3-0.12,0.64-0.04,0.86,0.2c1.39,1.55,2.53,3.25,3.37,5.05c0.17,0.37,0.03,0.81-0.32,1
					l-3.07,1.7C430.28,196.52,430.13,196.55,429.98,196.54z M430.69,191.48l0.09,3.01l1.31-0.73
					C431.68,192.97,431.22,192.21,430.69,191.48z"/>
			</g>
			<g>
				<path class="st1" d="M221.49,124.25c-0.09-0.01-0.19-0.03-0.29-0.08l-69.7-35.4c-0.28-0.14-0.44-0.44-0.42-0.75
					c0.02-0.31,0.24-0.57,0.54-0.67l53.55-16.79c0.19-0.06,0.4-0.04,0.59,0.05c0.18,0.1,0.32,0.26,0.38,0.45l16.15,52.19
					c0.09,0.3,0,0.62-0.24,0.81C221.89,124.2,221.69,124.26,221.49,124.25z M153.88,88.25l66.4,33.72l-15.39-49.72L153.88,88.25z"/>
			</g>
			<g>
				<path class="st1" d="M221.49,124.25c-0.31-0.02-0.58-0.23-0.67-0.54l-16.16-52.19c-0.1-0.32,0.02-0.67,0.3-0.86
					c0.28-0.19,0.65-0.18,0.91,0.02l21.56,16.62c0.22,0.17,0.33,0.45,0.29,0.72l-5.41,35.57c-0.05,0.36-0.35,0.63-0.71,0.65
					C221.57,124.25,221.53,124.25,221.49,124.25z M206.85,73.38l14.44,46.67l4.84-31.81L206.85,73.38z"/>
			</g>
			<g>
				<path class="st1" d="M187.3,286.18c-0.17-0.01-0.33-0.08-0.45-0.2c-0.18-0.16-0.28-0.41-0.25-0.65l3.63-34.4
					c0.03-0.28,0.21-0.52,0.47-0.63c0.26-0.11,0.56-0.06,0.78,0.11l32.75,26.33c0.23,0.18,0.33,0.49,0.27,0.77
					c-0.07,0.28-0.29,0.51-0.58,0.57l-36.38,8.08C187.46,286.18,187.38,286.18,187.3,286.18z M191.61,252.49l-3.37,31.94l33.77-7.5
					L191.61,252.49z"/>
			</g>
			<g>
				<path class="st1" d="M212.17,294.27c-0.05,0-0.12-0.01-0.17-0.03l-24.88-8.1c-0.33-0.1-0.54-0.41-0.53-0.77
					c0.02-0.34,0.26-0.64,0.61-0.71l36.38-8.08c0.32-0.07,0.63,0.06,0.81,0.32c0.18,0.27,0.17,0.62-0.01,0.88l-11.51,16.18
					C212.71,294.18,212.44,294.3,212.17,294.27z M190.28,285.55l21.66,7.05l10.02-14.09L190.28,285.55z"/>
			</g>
			<g>
				<path class="st1" d="M223.68,278.1c-0.15-0.01-0.29-0.07-0.42-0.17l-32.75-26.32c-0.17-0.14-0.28-0.35-0.29-0.57
					c-0.01-0.22,0.08-0.43,0.24-0.58l18.96-18.01c0.19-0.18,0.47-0.25,0.72-0.18c0.26,0.07,0.46,0.26,0.54,0.51l13.8,44.33
					c0.1,0.32-0.02,0.67-0.31,0.87C224.03,278.07,223.86,278.11,223.68,278.1z M192.16,250.96l30.1,24.19l-12.68-40.74
					L192.16,250.96z"/>
			</g>
			<g>
				<path class="st1" d="M223.68,278.1c-0.31-0.03-0.58-0.24-0.67-0.54l-13.79-44.33c-0.09-0.29,0-0.6,0.22-0.8
					c0.22-0.2,0.54-0.26,0.82-0.13l83.19,36.21c0.32,0.14,0.5,0.48,0.46,0.82c-0.05,0.34-0.33,0.61-0.67,0.65l-69.4,8.12
					C223.79,278.1,223.73,278.1,223.68,278.1z M211.18,234.37l13.11,42.12l65.93-7.72L211.18,234.37z"/>
			</g>
			<g>
				<path class="st1" d="M91.03,195.5c-0.09-0.01-0.18-0.03-0.26-0.07L66.3,184.08c-0.19-0.09-0.34-0.25-0.41-0.46
					c-0.07-0.2-0.05-0.43,0.05-0.61c1.04-1.91,2.15-3.73,3.31-5.41c0.72-17.98,9.88-34.94,24.55-45.48
					c2.51-9.24,7.33-17.85,13.95-24.91c0.07-0.07,0.15-0.13,0.25-0.17l43.52-19.66c0.3-0.14,0.66-0.06,0.89,0.18
					c0.22,0.24,0.26,0.61,0.1,0.9L91.76,195.11C91.61,195.38,91.33,195.52,91.03,195.5z M67.7,183.03l23.08,10.7L150,89.76
					l-41.22,18.62c-6.46,6.92-11.15,15.35-13.56,24.41c-0.04,0.17-0.15,0.33-0.3,0.43c-14.48,10.29-23.51,26.99-24.14,44.67
					c0,0.15-0.05,0.29-0.14,0.41C69.62,179.77,68.63,181.36,67.7,183.03z"/>
			</g>
			<g>
				<path class="st1" d="M60.53,201.06c-0.18-0.01-0.35-0.09-0.48-0.22c-0.18-0.18-0.26-0.44-0.21-0.68
					c1.14-6,3.19-11.76,6.11-17.13c0.19-0.36,0.63-0.51,1-0.33l24.47,11.35c0.3,0.14,0.48,0.46,0.44,0.8
					c-0.04,0.33-0.29,0.6-0.63,0.66l-30.51,5.56C60.66,201.06,60.59,201.06,60.53,201.06z M66.96,184.39
					c-2.48,4.72-4.29,9.74-5.39,14.95l27-4.92L66.96,184.39z"/>
			</g>
			<g>
				<path class="st1" d="M354.3,335.09c-0.22-0.02-0.42-0.13-0.56-0.32l-47.36-65.29c-0.16-0.21-0.19-0.5-0.09-0.75
					c0.1-0.25,0.33-0.42,0.59-0.46l22.08-3.54c0.37-0.05,0.72,0.15,0.84,0.49l25.28,68.84c0.13,0.36-0.02,0.77-0.36,0.94
					C354.59,335.07,354.44,335.1,354.3,335.09z M308.36,269.59l43.36,59.78l-23.14-63.02L308.36,269.59z"/>
			</g>
			<g>
				<path class="st1" d="M354.3,335.09c-0.29-0.02-0.56-0.21-0.66-0.5l-25.28-68.83c-0.1-0.27-0.04-0.58,0.17-0.8
					c0.2-0.21,0.5-0.29,0.78-0.21l23.82,7.27c0.32,0.1,0.54,0.38,0.54,0.72l1.45,61.57c0.01,0.37-0.25,0.69-0.63,0.77
					C354.43,335.09,354.36,335.09,354.3,335.09z M330.34,266.68l23.14,63.02l-1.33-56.37L330.34,266.68z"/>
			</g>
			<g>
				<path class="st1" d="M226.9,88.67c-0.15-0.01-0.29-0.06-0.41-0.16L204.92,71.9c-0.2-0.16-0.31-0.4-0.3-0.65
					c0.01-0.25,0.16-0.49,0.37-0.62l28.52-17.17c0.09-0.05,0.18-0.09,0.28-0.1l0.38-0.06c0.29-0.05,0.58-0.1,0.87-0.13
					c5.01-0.59,10.1-0.08,14.87,1.47c0.23,0.07,0.42,0.26,0.49,0.49c0.08,0.23,0.04,0.48-0.1,0.69l-22.72,32.54
					c-0.12,0.17-0.31,0.29-0.51,0.32C227.02,88.68,226.96,88.68,226.9,88.67z M206.76,71.36l20.03,15.44l21.66-31.01
					c-4.27-1.24-8.78-1.62-13.22-1.1c-0.27,0.03-0.54,0.08-0.8,0.12l-0.24,0.04L206.76,71.36z"/>
			</g>
			<g>
				<path class="st1" d="M212.82,310.14L212.82,310.14c-3.1-0.25-6.22-0.74-9.25-1.45c-0.24-0.05-0.44-0.22-0.53-0.44
					c-0.1-0.23-0.08-0.48,0.04-0.69l8.5-14.44c0.12-0.21,0.34-0.35,0.58-0.37c0.24-0.03,0.48,0.07,0.65,0.24l14.28,15.46
					c0.19,0.21,0.25,0.51,0.16,0.78c-0.09,0.27-0.33,0.46-0.61,0.5l-0.36,0.06c-0.34,0.05-0.67,0.1-1,0.14
					C221.13,310.4,216.94,310.47,212.82,310.14z M204.94,307.42c6.54,1.41,13.32,1.75,20.01,0.98l-12.57-13.61L204.94,307.42z"/>
			</g>
			<g>
				<path class="st1" d="M226.46,309.73c-0.19-0.02-0.37-0.11-0.51-0.25l-14.28-15.46c-0.25-0.27-0.27-0.67-0.06-0.97l11.51-16.18
					c0.15-0.22,0.39-0.33,0.65-0.33c0.27-0.02,0.49,0.14,0.63,0.36l17.53,27.7c0.12,0.19,0.15,0.43,0.08,0.65
					c-0.07,0.22-0.23,0.39-0.44,0.48c-4.77,1.93-9.8,3.27-14.95,3.98C226.57,309.74,226.51,309.74,226.46,309.73z M213.23,293.44
					l13.58,14.7c4.57-0.67,9.05-1.84,13.32-3.49l-16.42-25.95L213.23,293.44z"/>
			</g>
			<g>
				<path class="st1" d="M288.09,311.63c-0.07-0.01-0.14-0.02-0.21-0.04c-10.47-3.96-18.73-12.08-22.86-22.4
					c-6.42,7.23-14.5,12.94-23.45,16.56c-0.34,0.13-0.74,0.01-0.94-0.3l-17.53-27.71c-0.14-0.22-0.16-0.5-0.04-0.74
					c0.11-0.24,0.34-0.4,0.61-0.43l69.4-8.12c0.24-0.03,0.47,0.05,0.63,0.22c0.17,0.16,0.25,0.4,0.22,0.63l-4.99,41.66
					c-0.03,0.23-0.16,0.44-0.37,0.56C288.41,311.61,288.25,311.65,288.09,311.63z M265.35,286.95c0.03,0,0.05,0,0.08,0.01
					c0.27,0.05,0.49,0.24,0.59,0.5c3.68,10.16,11.48,18.25,21.49,22.33l4.76-39.7l-67.21,7.87l16.53,26.12
					c8.88-3.7,16.87-9.52,23.12-16.86C264.86,287.02,265.1,286.93,265.35,286.95z"/>
			</g>
			<g>
				<path class="st1" d="M326.75,418.71c-0.02,0-0.04-0.01-0.06-0.01l-0.22-0.03c-0.37-0.07-0.65-0.39-0.65-0.77
					c0.01-0.31,0.2-0.7,0.5-0.81c0.29-0.11,0.62-0.14,0.84,0.1l0.22,0.24c0.22,0.24,0.27,0.6,0.12,0.88
					C327.34,418.58,327.05,418.74,326.75,418.71z"/>
			</g>
			<g>
				<path class="st1" d="M294.48,317.86c-0.27-0.02-0.51-0.19-0.63-0.43c-0.79-1.61-1.42-3.11-1.93-4.56
					c-1.33-0.34-2.69-0.77-4.04-1.29c-0.33-0.12-0.53-0.46-0.5-0.81l5-41.66c0.05-0.39,0.37-0.68,0.75-0.68l13.86-0.18
					c0.24,0.01,0.46,0.1,0.61,0.29c0.15,0.19,0.2,0.44,0.14,0.67l-12.47,48.07c-0.08,0.31-0.35,0.54-0.67,0.57
					C294.57,317.87,294.52,317.87,294.48,317.86z M288.99,310.36c1.24,0.45,2.49,0.82,3.71,1.13c0.26,0.06,0.46,0.25,0.55,0.5
					c0.31,0.92,0.67,1.86,1.09,2.83l11.68-45.01l-12.18,0.16L288.99,310.36z"/>
			</g>
			<g>
				<path class="st1" d="M358.41,181.94c-0.01,0-0.01,0-0.02,0c-0.25-0.03-0.48-0.18-0.6-0.41l-30.09-56.78
					c-0.18-0.35-0.07-0.77,0.24-1c0.32-0.23,0.76-0.17,1.02,0.12l39.73,45.13c0.25,0.29,0.26,0.71,0.02,1l-9.64,11.66
					C358.9,181.85,358.66,181.96,358.41,181.94z M332.12,129.8l26.49,49.99l8.49-10.26L332.12,129.8z"/>
			</g>
			<g>
				<path class="st1" d="M379.25,337.17L379.25,337.17l-24.96-2.08c-0.39-0.03-0.7-0.36-0.71-0.75l-1.45-61.57
					c-0.01-0.34,0.21-0.65,0.54-0.75c0.33-0.1,0.69,0.02,0.87,0.32L390.88,330c0.22,0.33,0.15,0.77-0.17,1.02
					c-3.38,2.64-7.13,4.69-11.14,6.11C379.47,337.16,379.36,337.18,379.25,337.17z M355.11,333.61l24.1,2.01
					c3.57-1.28,6.93-3.09,9.99-5.38l-35.46-54.77L355.11,333.61z"/>
			</g>
			<g>
				<path class="st1" d="M390.17,331.18c-0.02,0-0.04,0-0.07-0.01c-0.21-0.04-0.4-0.16-0.52-0.34l-37.32-57.66
					c-0.12-0.19-0.16-0.41-0.09-0.63c0.06-0.21,0.2-0.39,0.4-0.48l25.8-12.59c0.21-0.1,0.46-0.1,0.67,0
					c0.22,0.11,0.37,0.3,0.42,0.54l14.23,67.93c0.05,0.26-0.03,0.53-0.22,0.72c-0.87,0.82-1.8,1.62-2.76,2.37
					C390.55,331.14,390.36,331.2,390.17,331.18z M354.02,273.06l36.4,56.22c0.58-0.47,1.14-0.96,1.68-1.46l-13.94-66.53
					L354.02,273.06z"/>
			</g>
			<g>
				<path class="st1" d="M392.88,328.86c-0.06,0-0.11-0.02-0.17-0.03c-0.27-0.09-0.47-0.31-0.52-0.58l-14.23-67.93
					c-0.05-0.23,0.01-0.48,0.17-0.66c0.16-0.18,0.39-0.28,0.63-0.27l43.85,2.53c0.22-0.02,0.46,0.14,0.6,0.35
					c0.14,0.2,0.16,0.46,0.08,0.69l-13.85,37.65c-0.06,0.17-0.18,0.31-0.34,0.4c-0.74,0.42-1.49,0.83-2.26,1.2
					c-0.3,0.16-0.61,0.29-0.91,0.42c-0.73,9.93-5.14,19.15-12.45,26.02C393.31,328.8,393.09,328.88,392.88,328.86z M379.67,260.99
					l13.74,65.57c6.54-6.59,10.43-15.24,11.01-24.49c0.02-0.28,0.19-0.54,0.45-0.65l0.24-0.1c0.35-0.16,0.7-0.32,1.05-0.49
					c0.65-0.32,1.3-0.66,1.92-1.02l13.4-36.42L379.67,260.99z"/>
			</g>
			<g>
				<path class="st1" d="M408.64,301.11c-0.16-0.01-0.31-0.07-0.44-0.17c-0.24-0.21-0.34-0.56-0.22-0.86l13.85-37.65
					c0.12-0.31,0.42-0.51,0.75-0.5c0.36,0.02,0.62,0.24,0.71,0.56l4.23,14.69c0.04,0.14,0.04,0.29-0.01,0.43
					c-2.89,9.96-9.45,18.28-18.44,23.41C408.95,301.09,408.79,301.12,408.64,301.11z M422.46,265.16l-12.28,33.38
					c7.63-4.94,13.19-12.38,15.8-21.16L422.46,265.16z"/>
			</g>
			<g>
				<path class="st1" d="M209.89,233.76c-0.05,0-0.11-0.01-0.16-0.03c-0.32-0.09-0.54-0.38-0.55-0.71l-2.94-90.59
					c-0.01-0.28,0.14-0.55,0.38-0.69c0.25-0.14,0.55-0.14,0.79,0.01l46.94,28.97c0.18,0.11,0.31,0.29,0.35,0.5
					c0.04,0.21,0,0.43-0.13,0.6l-44,61.62C210.42,233.67,210.15,233.79,209.89,233.76z M207.83,143.82l2.82,86.87l42.2-59.1
					L207.83,143.82z"/>
			</g>
			<g>
				<path class="st1" d="M253.89,172.15c-0.12-0.01-0.24-0.05-0.34-0.11l-46.94-28.97c-0.3-0.19-0.44-0.55-0.33-0.89
					c0.11-0.34,0.43-0.56,0.78-0.53l56.45,3.93c0.28-0.02,0.46,0.15,0.6,0.35c0.13,0.21,0.16,0.46,0.07,0.69l-9.52,25.04
					c-0.08,0.21-0.25,0.38-0.47,0.46C254.1,172.14,253.99,172.16,253.89,172.15z M210.07,143.39l43.49,26.84l8.81-23.2
					L210.07,143.39z"/>
			</g>
			<g>
				<path class="st1" d="M209.89,233.76c-0.2-0.02-0.4-0.12-0.54-0.29c-0.21-0.27-0.22-0.65-0.03-0.93l44-61.62
					c0.21-0.29,0.6-0.4,0.93-0.26l51.35,21.75c0.29,0.13,0.47,0.4,0.47,0.71c0,0.31-0.19,0.59-0.47,0.71l-95.36,39.86
					C210.13,233.76,210.01,233.77,209.89,233.76z M254.22,172.33l-42.07,58.92l91.18-38.12L254.22,172.33z"/>
			</g>
			<g>
				<path class="st1" d="M293.09,269.97c-0.09-0.01-0.17-0.02-0.25-0.06l-83.2-36.21c-0.28-0.12-0.47-0.4-0.46-0.71
					c0-0.31,0.19-0.59,0.47-0.7l95.36-39.87c0.26-0.11,0.55-0.06,0.77,0.11c0.22,0.17,0.33,0.45,0.29,0.73l-12.16,76.08
					c-0.04,0.23-0.18,0.44-0.39,0.55C293.38,269.96,293.23,269.99,293.09,269.97z M211.91,233.01l80.63,35.1l11.79-73.74
					L211.91,233.01z"/>
			</g>
			<g>
				<path class="st1" d="M305.25,193.9c-0.08-0.01-0.16-0.03-0.24-0.06l-51.36-21.75c-0.38-0.16-0.57-0.6-0.42-0.98l9.51-25.04
					c0.1-0.25,0.32-0.43,0.58-0.48c0.26-0.06,0.53,0.04,0.71,0.24l41.84,46.79c0.24,0.27,0.27,0.67,0.05,0.96
					C305.77,193.8,305.51,193.92,305.25,193.9z M254.93,170.96l47.5,20.12l-38.7-43.29L254.93,170.96z"/>
			</g>
			<g>
				<path class="st1" d="M305.25,193.9c-0.19-0.02-0.38-0.11-0.52-0.26l-41.84-46.79c-0.14-0.16-0.21-0.37-0.19-0.58
					c0.02-0.21,0.12-0.41,0.28-0.54l29.73-24.05c0.21-0.17,0.5-0.22,0.75-0.12c0.26,0.1,0.45,0.32,0.49,0.59L306.07,193
					c0.06,0.34-0.12,0.67-0.43,0.82C305.51,193.89,305.38,193.91,305.25,193.9z M264.58,146.43l39.52,44.19l-11.44-66.91
					L264.58,146.43z"/>
			</g>
			<g>
				<path class="st1" d="M293.09,269.97c-0.2-0.01-0.39-0.11-0.52-0.26c-0.15-0.17-0.21-0.4-0.18-0.63l12.16-76.08
					c0.06-0.39,0.41-0.67,0.81-0.65c0,0,0.01,0,0.01,0c0.39,0.03,0.7,0.36,0.7,0.75l1.7,75.9c0,0.2-0.07,0.4-0.21,0.55
					c-0.14,0.14-0.34,0.23-0.55,0.23l-13.86,0.18C293.13,269.98,293.11,269.98,293.09,269.97z M304.73,201.64l-10.68,66.79
					l12.17-0.16L304.73,201.64z"/>
			</g>
			<g>
				<path class="st1" d="M306.94,269.79c-0.16-0.01-0.31-0.07-0.43-0.17c-0.17-0.14-0.28-0.35-0.28-0.57l-1.7-75.9
					c-0.01-0.38,0.26-0.71,0.64-0.78c0.37-0.07,0.74,0.16,0.86,0.52l23.78,72.36c0.07,0.22,0.04,0.45-0.07,0.64
					c-0.12,0.2-0.31,0.33-0.54,0.35l-22.08,3.54C307.06,269.8,307,269.8,306.94,269.79z M306.19,198.29l1.56,69.83l20.32-3.26
					L306.19,198.29z"/>
			</g>
			<g>
				<path class="st1" d="M305.25,193.9c-0.35-0.03-0.64-0.29-0.7-0.64l-12.12-70.85c-0.04-0.23,0.03-0.47,0.19-0.64
					c0.16-0.17,0.39-0.27,0.62-0.25l35.18,2.11c0.21-0.02,0.46,0.14,0.6,0.34c0.13,0.2,0.17,0.45,0.09,0.68l-23.07,68.74
					C305.93,193.71,305.62,193.93,305.25,193.9z M294.12,123.11l11.43,66.88l21.78-64.89L294.12,123.11z"/>
			</g>
			<g>
				<path class="st1" d="M305.25,193.9c-0.2-0.02-0.38-0.11-0.51-0.25c-0.18-0.21-0.24-0.5-0.16-0.76l23.07-68.74
					c0.1-0.29,0.36-0.5,0.67-0.52c0.31-0.04,0.6,0.13,0.75,0.41l30.08,56.78c0.12,0.21,0.12,0.47,0.02,0.68
					c-0.1,0.21-0.29,0.38-0.53,0.43l-53.16,11.96C305.4,193.9,305.32,193.9,305.25,193.9z M328.53,126.33l-22.06,65.75l50.84-11.44
					L328.53,126.33z"/>
			</g>
			<g>
				<path class="st1" d="M151.78,88.85c-0.01,0-0.03,0-0.04-0.01c-0.26-0.03-0.48-0.2-0.59-0.43l-3.97-8.32
					c-0.17-0.35-0.05-0.77,0.28-0.98c5.46-3.49,11.45-6,17.8-7.47c0.32-0.07,0.66,0.07,0.83,0.35c0.17,0.29,0.14,0.65-0.08,0.9
					l-13.58,15.68C152.26,88.77,152.03,88.87,151.78,88.85z M148.86,80.05l3.17,6.63l11.2-12.94
					C158.16,75.16,153.34,77.27,148.86,80.05z"/>
			</g>
			<g>
				<path class="st1" d="M151.78,88.85c-0.23-0.02-0.45-0.14-0.58-0.35c-0.19-0.29-0.16-0.66,0.06-0.92l13.58-15.68
					c0.11-0.12,0.25-0.21,0.41-0.24c2.13-0.49,4.24-0.86,6.27-1.1c1.13-0.13,2.25-0.22,3.38-0.28c8.03-5.99,17.53-9.77,27.51-10.94
					c1.41-0.16,2.82-0.27,4.19-0.33c0.22-0.02,0.44,0.08,0.59,0.24c0.15,0.16,0.23,0.38,0.21,0.61l-1.23,11.52
					c-0.03,0.31-0.24,0.56-0.53,0.65l-53.55,16.79C151.98,88.84,151.88,88.86,151.78,88.85z M165.84,73.09L154.2,86.53l50.48-15.83
					l1.08-10.13c-1.05,0.06-2.12,0.16-3.18,0.28c-9.78,1.14-19.09,4.87-26.95,10.78c-0.12,0.09-0.27,0.15-0.42,0.15
					c-1.17,0.06-2.34,0.15-3.51,0.29C169.8,72.3,167.83,72.64,165.84,73.09z"/>
			</g>
			<g>
				<path class="st1" d="M205.33,72.05c-0.12-0.01-0.24-0.05-0.35-0.12c-0.25-0.16-0.38-0.44-0.35-0.73l1.23-11.52
					c0.04-0.38,0.35-0.67,0.74-0.68c3.93-0.17,7.91,0.07,11.81,0.72c4.5-3.31,9.82-5.5,15.4-6.36c0.36-0.06,0.71,0.15,0.84,0.5
					c0.12,0.35-0.01,0.73-0.33,0.93l-28.52,17.17C205.65,72.03,205.49,72.07,205.33,72.05z M207.32,60.51l-0.99,9.32l23.1-13.91
					c-3.74,1.13-7.26,2.9-10.37,5.22c-0.17,0.13-0.37,0.18-0.59,0.14C214.8,60.65,211.04,60.39,207.32,60.51z"/>
			</g>
			<g>
				<path class="st1" d="M110.49,269.55c-0.01,0-0.02,0-0.03,0c-10.54-1.31-20.56-5.46-28.97-12.02c-0.29-0.22-0.38-0.62-0.22-0.94
					l3.21-6.46c0.19-0.37,0.63-0.53,1.01-0.36l37.9,17.11c0.32,0.14,0.5,0.48,0.44,0.83c-0.05,0.34-0.34,0.61-0.68,0.64l-12.52,1.22
					C110.58,269.55,110.53,269.55,110.49,269.55z M82.93,256.7c8.07,6.16,17.61,10.05,27.63,11.31l9.55-0.92l-34.59-15.62
					L82.93,256.7z"/>
			</g>
			<g>
				<path class="st1" d="M112.88,269.79L112.88,269.79c-0.81-0.07-1.62-0.15-2.42-0.25c-0.39-0.05-0.68-0.38-0.68-0.77
					c0.01-0.4,0.31-0.72,0.7-0.76l12.52-1.22c0.26-0.02,0.52,0.09,0.68,0.3c0.16,0.21,0.2,0.48,0.11,0.73l-0.52,1.44
					c-0.11,0.29-0.36,0.48-0.66,0.51C119.36,270.05,116.08,270.05,112.88,269.79z"/>
			</g>
			<g>
				<path class="st1" d="M123,268.33c-0.09-0.01-0.17-0.03-0.26-0.07l-37.9-17.11c-0.3-0.14-0.48-0.45-0.45-0.79l5.93-55.73
					c0.04-0.35,0.31-0.63,0.65-0.68c0.35-0.05,0.68,0.13,0.83,0.45l31.97,72.84c0.13,0.29,0.06,0.63-0.16,0.85
					C123.45,268.27,123.22,268.35,123,268.33z M85.99,249.99l35.56,16.05l-30-68.34L85.99,249.99z"/>
			</g>
			<g>
				<path class="st1" d="M123,268.33c-0.28-0.02-0.53-0.2-0.64-0.46l-31.97-72.84c-0.1-0.23-0.08-0.5,0.05-0.71
					c0.13-0.22,0.36-0.35,0.62-0.37l68.01-3.65c0.27-0.01,0.53,0.12,0.68,0.34c0.15,0.23,0.17,0.51,0.06,0.76l-36.04,76.48
					c-0.13,0.27-0.4,0.45-0.7,0.45C123.04,268.34,123.02,268.33,123,268.33z M92.25,195.44l30.84,70.27l34.77-73.79L92.25,195.44z"
					/>
			</g>
			<g>
				<path class="st1" d="M122.63,269.76c-0.23-0.02-0.48-0.12-0.61-0.29c-0.16-0.2-0.29-0.48-0.2-0.73l0.53-1.44
					c0.11-0.29,0.38-0.49,0.69-0.51c0.3-0.01,0.6,0.16,0.73,0.43l0.65,1.34c0.11,0.23,0.1,0.49-0.02,0.71
					c-0.12,0.22-0.34,0.36-0.59,0.39l-1.01,0.1C122.73,269.76,122.68,269.76,122.63,269.76z"/>
			</g>
			<g>
				<path class="st1" d="M158.25,265.79c-0.09-0.01-0.18-0.03-0.27-0.07c-0.2-0.09-0.35-0.27-0.41-0.48
					c-0.55-1.88-1.03-3.83-1.41-5.78c-0.08-0.41,0.17-0.8,0.57-0.9l34.07-8.3c0.39-0.1,0.79,0.13,0.91,0.5
					c0.13,0.38-0.06,0.8-0.43,0.95l-32.68,14.02C158.5,265.78,158.37,265.8,158.25,265.79z M157.82,259.88
					c0.28,1.38,0.62,2.75,0.99,4.09l23.38-10.03L157.82,259.88z"/>
			</g>
			<g>
				<path class="st1" d="M123.65,269.67c-0.27-0.02-0.51-0.18-0.63-0.43l-0.65-1.34c-0.1-0.21-0.1-0.45,0-0.66
					c0.1-0.21,0.29-0.36,0.51-0.42l22.65-5.52c0.37-0.09,0.76,0.11,0.9,0.47c0.14,0.36-0.01,0.77-0.35,0.95
					c-6.67,3.67-13.91,5.99-21.53,6.88l-0.77,0.07C123.74,269.67,123.69,269.67,123.65,269.67z M138.31,264.64l-14.13,3.45l0.2-0.02
					C129.19,267.51,133.85,266.35,138.31,264.64z"/>
			</g>
			<g>
				<path class="st1" d="M123,268.33c-0.21-0.02-0.4-0.12-0.53-0.29c-0.19-0.23-0.23-0.54-0.1-0.81l36.04-76.48
					c0.12-0.26,0.39-0.43,0.68-0.44c0.29,0,0.56,0.15,0.7,0.41l31.89,59.92c0.11,0.21,0.12,0.46,0.02,0.67
					c-0.1,0.22-0.29,0.38-0.52,0.44l-34.07,8.3c-0.2,0.05-0.42,0.02-0.6-0.1c-0.18-0.11-0.3-0.29-0.34-0.5
					c-0.23-1.18-0.41-2.26-0.56-3.28c-2.95,2.48-6.14,4.68-9.52,6.53c-0.06,0.04-0.12,0.06-0.19,0.08l-22.65,5.52
					C123.17,268.33,123.08,268.34,123,268.33z M159.15,192.8l-34.7,73.63l20.98-5.12c3.66-2.02,7.1-4.46,10.24-7.22
					c0.22-0.19,0.52-0.24,0.78-0.14c0.27,0.1,0.46,0.35,0.49,0.63c0.14,1.17,0.33,2.41,0.58,3.79l32.32-7.88L159.15,192.8z"/>
			</g>
			<g>
				<path class="st1" d="M243.5,99.66c-0.13-0.01-0.25-0.05-0.36-0.13l-16.6-10.98c-0.18-0.12-0.31-0.31-0.34-0.53
					c-0.03-0.22,0.04-0.44,0.18-0.61l26.48-31.05c0.22-0.26,0.59-0.34,0.9-0.2l0.23,0.1c0.02,0.01,0.05,0.02,0.08,0.03
					c2.47-1.17,5.1-2.04,7.8-2.6c0.28-0.05,0.57,0.04,0.75,0.26c0.18,0.22,0.23,0.52,0.12,0.78l-18.46,44.45
					c-0.09,0.21-0.27,0.38-0.49,0.44C243.69,99.65,243.59,99.67,243.5,99.66z M228.11,87.75l15.1,9.99l17.53-42.21
					c-2.19,0.56-4.31,1.32-6.33,2.3c-0.21,0.1-0.46,0.1-0.67,0c-0.03-0.01-0.05-0.03-0.08-0.04L228.11,87.75z"/>
			</g>
			<g>
				<path class="st1" d="M226.9,88.67c-0.14-0.01-0.29-0.06-0.41-0.16c-0.33-0.25-0.4-0.71-0.16-1.05l22.72-32.54
					c0.19-0.28,0.54-0.4,0.87-0.29c1.25,0.41,2.5,0.91,3.84,1.52c0.22,0.1,0.37,0.3,0.43,0.53c0.05,0.24-0.01,0.48-0.17,0.67
					l-26.48,31.05C227.38,88.6,227.14,88.69,226.9,88.67z M249.99,56.28l-13.26,18.98l15.46-18.12
					C251.43,56.81,250.7,56.53,249.99,56.28z"/>
			</g>
			<g>
				<path class="st1" d="M384.14,106.61c-0.08-0.01-0.16-0.03-0.23-0.06l-16.19-6.67c-0.2-0.08-0.35-0.24-0.43-0.45
					c-0.08-0.2-0.06-0.43,0.04-0.63l3.1-5.81c0.18-0.35,0.58-0.49,0.95-0.36c6.04,2.29,10.96,6.99,13.52,12.89
					c0.13,0.29,0.06,0.62-0.16,0.85C384.59,106.54,384.36,106.62,384.14,106.61z M369.1,98.78l13.52,5.57
					c-2.45-4.48-6.41-8.05-11.15-10.02L369.1,98.78z"/>
			</g>
			<g>
				<path class="st1" d="M417.06,155.92c-0.2-0.02-0.38-0.11-0.52-0.26l-49.1-55.98c-0.24-0.27-0.26-0.66-0.05-0.95
					c0.2-0.29,0.58-0.4,0.92-0.26l16.19,6.66c0.18,0.08,0.33,0.22,0.41,0.41c0.54,1.24,0.97,2.52,1.28,3.79
					c9.46,4.55,15.82,13.45,17.04,23.89c0.09,0.77,0.15,1.54,0.18,2.31c7.3,4.2,12.56,11.27,14.46,19.46
					c0.08,0.34-0.08,0.7-0.4,0.86C417.35,155.91,417.2,155.93,417.06,155.92z M370.76,101.14L415.39,152
					c-2.37-6.47-7.01-11.96-13.11-15.36c-0.24-0.13-0.39-0.38-0.4-0.66c-0.02-0.86-0.07-1.73-0.18-2.61
					c-1.17-10.02-7.34-18.56-16.5-22.83c-0.22-0.1-0.37-0.3-0.42-0.53c-0.28-1.21-0.67-2.42-1.16-3.6L370.76,101.14z"/>
			</g>
			<g>
				<path class="st1" d="M81.9,257.69c-0.15-0.01-0.29-0.07-0.41-0.16c-6.59-5.14-12.12-11.77-15.98-19.16
					c-0.16-0.31-0.1-0.69,0.17-0.92c0.26-0.24,0.65-0.27,0.94-0.07l18.98,12.44c0.32,0.21,0.44,0.64,0.27,0.99l-3.21,6.46
					c-0.1,0.2-0.29,0.35-0.52,0.41C82.06,257.69,81.98,257.7,81.9,257.69z M68.39,240.38c3.47,5.83,8.02,11.08,13.3,15.35l2.49-5
					L68.39,240.38z"/>
			</g>
			<g>
				<path class="st1" d="M85.11,251.23c-0.13-0.01-0.25-0.05-0.36-0.12l-18.98-12.44c-0.11-0.07-0.2-0.17-0.26-0.29
					c-3.12-5.95-5.17-12.38-6.12-19.1c-0.05-0.35,0.14-0.68,0.46-0.82c0.32-0.14,0.69-0.04,0.9,0.22l25.02,31.31
					c0.24,0.3,0.22,0.72-0.03,1C85.57,251.16,85.34,251.25,85.11,251.23z M66.78,237.48l14.78,9.68L61.4,221.94
					C62.44,227.38,64.24,232.59,66.78,237.48z"/>
			</g>
			<g>
				<path class="st1" d="M328.31,125.16c-0.14-0.01-0.28-0.07-0.4-0.16c-0.26-0.2-0.37-0.53-0.27-0.83l9.32-30.76
					c0.12-0.38,0.49-0.61,0.88-0.54l30.32,5.55c0.31,0.06,0.56,0.3,0.62,0.61c0.06,0.31-0.08,0.62-0.35,0.79l-39.64,25.22
					C328.64,125.13,328.48,125.17,328.31,125.16z M338.24,94.5l-8.52,28.12l36.23-23.05L338.24,94.5z"/>
			</g>
			<g>
				<path class="st1" d="M337.64,94.39c-0.12-0.01-0.24-0.05-0.35-0.12c-0.2-0.13-0.33-0.33-0.35-0.56l-2.48-21.25
					c-0.04-0.35,0.16-0.67,0.48-0.8c0.32-0.13,0.69-0.03,0.9,0.24l0.11,0.14c9.56,0.18,17.96,5.94,21.64,14.7
					c0.09,0.19,0.08,0.41-0.01,0.61c-0.09,0.19-0.25,0.34-0.45,0.41l-19.17,6.59C337.85,94.39,337.74,94.4,337.64,94.39z
					 M336.13,73.59l2.22,18.99l17.47-6C352.26,78.88,344.69,73.83,336.13,73.59z"/>
			</g>
			<g>
				<path class="st1" d="M367.96,99.94c-0.03,0-0.05-0.01-0.08-0.01l-30.32-5.55c-0.39-0.07-0.65-0.42-0.63-0.82
					c0.03-0.39,0.35-0.7,0.74-0.71l31.17-1c0.07-0.01,0.15,0.01,0.22,0.02c0.74,0.2,1.5,0.45,2.32,0.76
					c0.2,0.08,0.37,0.24,0.45,0.45c0.07,0.2,0.06,0.44-0.04,0.63l-3.09,5.81C368.55,99.81,368.26,99.96,367.96,99.94z M344.92,94.16
					l22.68,4.15l2.41-4.54c-0.41-0.14-0.82-0.27-1.24-0.38L344.92,94.16z"/>
			</g>
			<g>
				<path class="st1" d="M337.64,94.39c-0.34-0.03-0.63-0.28-0.7-0.63c-0.07-0.37,0.15-0.74,0.51-0.87l19.17-6.58
					c0.38-0.13,0.8,0.06,0.96,0.43c0.65,1.53,1.13,3.09,1.44,4.65c0.35-0.06,0.71-0.12,1.07-0.17c3.02-0.35,6.08-0.13,8.99,0.65
					c0.37,0.1,0.61,0.45,0.56,0.83c-0.05,0.38-0.36,0.67-0.74,0.68l-31.17,1C337.7,94.4,337.67,94.39,337.64,94.39z M356.43,88
					l-13.64,4.69l14.82-0.48C357.36,90.81,356.96,89.4,356.43,88z"/>
			</g>
			<g>
				<path class="st1" d="M243.5,99.66c-0.22-0.02-0.42-0.13-0.55-0.31c-0.16-0.22-0.2-0.51-0.1-0.76l18.46-44.45
					c0.1-0.24,0.31-0.41,0.56-0.46c1.04-0.21,2.06-0.38,3.05-0.5c7.24-0.84,14.51,0.57,20.88,4.07c0.12,0.04,0.23,0.1,0.31,0.19
					l31.3,33.3c0.2,0.21,0.27,0.52,0.16,0.79s-0.35,0.47-0.64,0.5l-73.29,7.61C243.59,99.66,243.54,99.66,243.5,99.66z
					 M262.57,55.11l-17.8,42.88l70.46-7.32L285.1,58.63c-6.11-3.36-13.07-4.72-20.02-3.91C264.27,54.81,263.42,54.95,262.57,55.11z"
					/>
			</g>
			<g>
				<path class="st1" d="M293.13,123.05c-0.09-0.01-0.18-0.03-0.27-0.07l-49.64-23.39c-0.31-0.15-0.49-0.49-0.43-0.83
					c0.06-0.34,0.34-0.6,0.68-0.64l73.29-7.61c0.3-0.03,0.6,0.12,0.75,0.39c0.15,0.27,0.13,0.6-0.05,0.85l-23.66,31
					C293.64,122.96,293.38,123.07,293.13,123.05z M246.38,99.37l46.57,21.95l22.2-29.09L246.38,99.37z"/>
			</g>
			<g>
				<path class="st1" d="M316.79,92.04c-0.19-0.02-0.37-0.1-0.5-0.24l-31.3-33.3c-0.18-0.19-0.25-0.46-0.18-0.71
					c0.06-0.25,0.24-0.46,0.49-0.54c1.69-0.59,3.42-0.99,5.12-1.19c5.39-0.63,10.89,0.62,15.48,3.47l0.14-0.02
					c4.6-0.53,9.23,0.27,13.39,2.33c0.28,0.14,0.45,0.43,0.43,0.75l-2.23,28.75c-0.02,0.31-0.22,0.57-0.51,0.67
					C317,92.04,316.89,92.05,316.79,92.04z M286.94,58.34l29.28,31.14l2.05-26.5c-3.77-1.76-7.93-2.44-12.06-1.95
					c-0.01,0-0.36,0.06-0.38,0.07c-0.18,0.03-0.36-0.02-0.51-0.12c-4.34-2.78-9.59-3.99-14.73-3.39
					C289.38,57.73,288.15,57.99,286.94,58.34z"/>
			</g>
			<g>
				<path class="st1" d="M293.13,123.05c-0.28-0.02-0.52-0.2-0.64-0.45c-0.12-0.26-0.08-0.56,0.09-0.79l23.66-31
					c0.17-0.22,0.44-0.35,0.73-0.29c0.28,0.05,0.52,0.24,0.61,0.51l11.53,33.11c0.09,0.24,0.04,0.51-0.11,0.72
					c-0.16,0.2-0.4,0.32-0.66,0.31l-35.19-2.11C293.14,123.05,293.14,123.05,293.13,123.05z M316.59,92.88l-21.91,28.72l32.59,1.95
					L316.59,92.88z"/>
			</g>
			<g>
				<path class="st1" d="M328.31,125.16c-0.3-0.02-0.56-0.23-0.66-0.52l-11.53-33.11c-0.08-0.25-0.04-0.52,0.13-0.73
					c0.17-0.21,0.41-0.31,0.69-0.29l20.85,2.35c0.22,0.03,0.43,0.16,0.56,0.35c0.12,0.19,0.16,0.43,0.09,0.64l-9.32,30.77
					c-0.09,0.32-0.39,0.54-0.72,0.55C328.36,125.16,328.34,125.16,328.31,125.16z M317.98,92.18l10.35,29.72l8.37-27.61
					L317.98,92.18z"/>
			</g>
			<g>
				<path class="st1" d="M337.64,94.39c-0.01,0-0.02,0-0.03,0l-20.85-2.35c-0.42-0.04-0.71-0.41-0.68-0.82l2.24-28.75
					c0.02-0.26,0.17-0.48,0.39-0.61c0.22-0.13,0.49-0.13,0.72-0.02c0.81,0.4,1.47,0.76,2.08,1.14c5.67,1.13,10.75,4.3,14.33,8.94
					c0.09,0.11,0.14,0.24,0.16,0.38l2.49,21.25c0.03,0.23-0.05,0.47-0.22,0.63C338.09,94.33,337.86,94.41,337.64,94.39z
					 M317.67,90.6l19.15,2.15l-2.34-20.07c-3.37-4.29-8.12-7.21-13.41-8.22c-0.09-0.02-0.18-0.05-0.27-0.11
					c-0.34-0.21-0.69-0.42-1.04-0.61L317.67,90.6z"/>
			</g>
			<g>
				<path class="st1" d="M317.89,357.85c-0.31-0.03-0.58-0.23-0.67-0.54c-2.83-9.07-6.35-17.42-10.45-24.83
					c-5.48-3.82-9.95-9.02-12.92-15.05c-0.08-0.17-0.1-0.35-0.05-0.53l12.47-48.07c0.07-0.31,0.34-0.53,0.66-0.57
					c0.32-0.03,0.62,0.13,0.77,0.41l40.43,78.22c0.07,0.12,0.1,0.27,0.08,0.41l-0.07,0.89c-0.02,0.32-0.24,0.59-0.54,0.68
					l-29.41,8.94C318.08,357.85,317.99,357.86,317.89,357.85z M295.35,317c2.89,5.74,7.18,10.68,12.44,14.31
					c0.1,0.07,0.18,0.16,0.24,0.27c4.08,7.34,7.59,15.59,10.43,24.54l28.18-8.56l0.01-0.16l-39.4-76.24L295.35,317z"/>
			</g>
			<g>
				<path class="st1" d="M326.75,418.71c-0.19-0.02-0.37-0.11-0.5-0.25l-0.22-0.23c-0.13-0.14-0.2-0.33-0.2-0.51
					c-0.18-22.37-3.07-42.69-8.6-60.4c-0.06-0.2-0.04-0.41,0.06-0.59c0.09-0.18,0.25-0.32,0.45-0.37l29.41-8.94
					c0.24-0.07,0.5-0.03,0.71,0.14c0.2,0.16,0.31,0.41,0.28,0.66c-0.04,0.6-0.08,1.2-0.12,1.81l-20.46,68.15
					c-0.08,0.27-0.29,0.46-0.56,0.52C326.9,418.71,326.82,418.72,326.75,418.71z M318.92,357.59c5.1,16.6,7.91,35.43,8.38,56.04
					l19.2-63.89c0-0.16,0.01-0.34,0.03-0.54L318.92,357.59z"/>
			</g>
			<g>
				<path class="st1" d="M347.37,348.02c-0.26-0.02-0.5-0.18-0.62-0.41l-40.43-78.22c-0.19-0.35-0.06-0.8,0.28-1.01
					c0.34-0.21,0.79-0.12,1.03,0.2l47.35,65.3c0.16,0.23,0.19,0.53,0.07,0.78l-0.99,2.06c-0.17,0.35-0.58,0.54-0.95,0.39
					c-1.26-0.45-2.43-0.92-3.53-1.43c-0.58,3.56-1.05,7.4-1.37,11.39c0.02,0.08,0.03,0.16,0.02,0.24c-0.03,0.43-0.44,0.66-0.85,0.7
					C347.38,348.02,347.38,348.02,347.37,348.02z M312.38,277.75l34.52,66.78c0.34-3.54,0.79-6.94,1.34-10.13
					c0.05-0.24,0.2-0.45,0.41-0.55c0.22-0.11,0.48-0.12,0.69,0c1.14,0.56,2.33,1.08,3.64,1.56l0.48-1.01L312.38,277.75z"/>
			</g>
			<g>
				<path class="st1" d="M326.75,418.71c-0.2-0.02-0.39-0.11-0.52-0.27c-0.17-0.2-0.22-0.47-0.15-0.72l20.42-67.98
					c0.11-0.37,0.46-0.59,0.88-0.54c0.39,0.07,0.66,0.42,0.63,0.81c-1.6,24.81,2.01,51.14,4.29,64.62c0.04,0.21-0.01,0.42-0.14,0.58
					c-0.12,0.17-0.31,0.28-0.52,0.31l-24.73,3.18C326.86,418.72,326.8,418.72,326.75,418.71z M346.17,356.18l-18.28,60.84
					l22.76-2.92C348.54,401.51,345.47,378.73,346.17,356.18z"/>
			</g>
			<g>
				<path class="st1" d="M363.18,339.27L363.18,339.27c-3.42-0.28-6.81-1.01-10.07-2.17c-0.2-0.07-0.37-0.23-0.46-0.43
					c-0.08-0.2-0.07-0.43,0.02-0.63l0.98-2.06c0.14-0.29,0.44-0.46,0.76-0.43l0,0l24.96,2.08c0.36,0.03,0.65,0.31,0.7,0.67
					c0.05,0.36-0.17,0.71-0.51,0.82c-2.78,0.98-5.69,1.66-8.65,2C368.36,339.43,365.75,339.48,363.18,339.27z M354.44,335.93
					c2.89,0.96,5.87,1.56,8.87,1.81l0,0c2.47,0.2,4.97,0.15,7.44-0.13c1.48-0.18,2.95-0.43,4.4-0.77l-20.32-1.7L354.44,335.93z"/>
			</g>
			<g>
				<path class="st1" d="M174.99,293.17c-0.17-0.01-0.34-0.09-0.47-0.22c-3.07-2.92-5.87-6.17-8.3-9.68
					c-0.17-0.25-0.18-0.58-0.02-0.84c0.15-0.26,0.47-0.36,0.75-0.37l20.52,2.57c0.33,0.04,0.59,0.29,0.66,0.61
					c0.06,0.33-0.09,0.66-0.37,0.82l-12.32,6.99C175.29,293.15,175.13,293.18,174.99,293.17z M168.5,283.82
					c2.01,2.73,4.24,5.29,6.66,7.64l9.8-5.57L168.5,283.82z"/>
			</g>
			<g>
				<path class="st1" d="M200.13,307.76c-0.05,0-0.11-0.01-0.16-0.03c-9.47-2.82-18.27-7.93-25.46-14.77
					c-0.18-0.16-0.26-0.41-0.24-0.65c0.03-0.24,0.18-0.46,0.39-0.58l12.31-6.99c0.36-0.21,0.83-0.09,1.05,0.28l12.83,21.58
					c0.16,0.27,0.14,0.62-0.06,0.87C200.64,307.67,200.39,307.78,200.13,307.76z M176.34,292.56c6.37,5.86,13.98,10.35,22.16,13.09
					l-11.41-19.19L176.34,292.56z"/>
			</g>
			<g>
				<path class="st1" d="M329.02,266.25c-0.05,0-0.1-0.01-0.15-0.03c-0.25-0.06-0.44-0.26-0.52-0.5l-23.78-72.36
					c-0.09-0.29-0.01-0.61,0.21-0.81c0.22-0.2,0.54-0.26,0.82-0.14l73.04,31.18c0.25,0.11,0.42,0.33,0.46,0.6
					c0.03,0.27-0.06,0.53-0.27,0.7l-49.26,41.18C329.42,266.21,329.22,266.27,329.02,266.25z M306.57,194.5l22.89,69.67l47.42-39.65
					L306.57,194.5z"/>
			</g>
			<g>
				<path class="st1" d="M378.28,225.08c-0.08-0.01-0.16-0.03-0.24-0.06L305,193.84c-0.31-0.13-0.49-0.45-0.47-0.78
					c0.03-0.33,0.27-0.61,0.6-0.68l53.16-11.96c0.35-0.07,0.71,0.1,0.86,0.43l19.88,43.14c0.13,0.29,0.07,0.63-0.15,0.86
					C378.73,225.02,378.51,225.1,378.28,225.08z M307.8,193.36l69.01,29.47l-18.78-40.77L307.8,193.36z"/>
			</g>
			<g>
				<path class="st1" d="M352.84,273.52c-0.05,0-0.11-0.01-0.16-0.03l-23.82-7.26c-0.27-0.09-0.47-0.31-0.53-0.59
					c-0.05-0.27,0.05-0.55,0.26-0.74l49.26-41.17c0.28-0.23,0.69-0.24,0.98-0.01c0.29,0.23,0.37,0.63,0.2,0.95l-25.44,48.44
					C353.44,273.38,353.15,273.54,352.84,273.52z M330.67,265.16l21.85,6.67l23.34-44.43L330.67,265.16z"/>
			</g>
			<g>
				<path class="st1" d="M352.84,273.52c-0.18-0.01-0.36-0.09-0.49-0.23c-0.24-0.23-0.29-0.59-0.13-0.89l25.44-48.44
					c0.17-0.31,0.52-0.47,0.87-0.39c0.34,0.08,0.58,0.39,0.59,0.74l0.36,35.85c0,0.3-0.17,0.57-0.43,0.7l-25.8,12.58
					C353.12,273.51,352.98,273.53,352.84,273.52z M377.61,227.38l-22.93,43.65l23.26-11.34L377.61,227.38z"/>
			</g>
			<g>
				<path class="st1" d="M378.28,225.08c-0.27-0.02-0.52-0.19-0.64-0.45l-19.88-43.14c-0.13-0.27-0.08-0.58,0.1-0.81l9.64-11.65
					c0.19-0.23,0.49-0.34,0.79-0.25c0.29,0.07,0.51,0.31,0.56,0.6l10.24,54.8c0.07,0.38-0.16,0.75-0.52,0.87
					C378.48,225.08,378.38,225.09,378.28,225.08z M359.37,181.28l17.08,37.08l-8.8-47.09L359.37,181.28z"/>
			</g>
			<g>
				<path class="st1" d="M378.28,225.08c-0.08-0.01-0.16-0.03-0.23-0.06c-0.24-0.1-0.41-0.31-0.46-0.57l-10.24-54.79
					c-0.05-0.28,0.05-0.55,0.26-0.73c0.21-0.18,0.51-0.23,0.76-0.13l57.61,21.98c0.27,0.11,0.46,0.35,0.49,0.63
					c0.04,0.29-0.09,0.56-0.33,0.73l-47.37,32.82C378.63,225.05,378.46,225.1,378.28,225.08z M369.12,170.72l9.76,52.28l45.2-31.31
					L369.12,170.72z"/>
			</g>
			<g>
				<path class="st1" d="M378.65,260.93c-0.4-0.03-0.71-0.36-0.71-0.76l-0.36-35.85c-0.01-0.31,0.17-0.58,0.44-0.71
					c0.28-0.13,0.6-0.08,0.83,0.12l44.21,38.38c0.25,0.21,0.34,0.57,0.21,0.87c-0.13,0.3-0.43,0.5-0.76,0.48l-43.85-2.53
					C378.66,260.93,378.65,260.93,378.65,260.93z M379.13,226.01l0.34,33.42l40.87,2.36L379.13,226.01z"/>
			</g>
			<g>
				<path class="st1" d="M422.49,263.46c-0.16-0.01-0.32-0.07-0.44-0.18l-44.21-38.38c-0.19-0.16-0.29-0.41-0.26-0.66
					c0.03-0.25,0.18-0.47,0.39-0.59l51.7-28.54c0.25-0.14,0.56-0.13,0.8,0.03c0.24,0.16,0.37,0.44,0.33,0.73l-4.73,42.29
					c-0.02,0.23-0.15,0.44-0.35,0.56c-1.79,1.13-3.72,1.98-5.73,2.53c1.84,2.23,3.45,4.7,4.79,7.34c0.07,0.13,0.1,0.28,0.08,0.43
					l-1.54,13.76c-0.03,0.28-0.22,0.52-0.49,0.63C422.72,263.45,422.61,263.47,422.49,263.46z M379.68,224.45l42.27,36.7l1.36-12.07
					c-1.46-2.83-3.24-5.44-5.3-7.78c-0.18-0.2-0.24-0.49-0.15-0.75c0.09-0.26,0.31-0.45,0.57-0.51c2.17-0.45,4.24-1.26,6.15-2.42
					l4.53-40.44L379.68,224.45z"/>
			</g>
			<g>
				<path class="st1" d="M378.28,225.08c-0.24-0.02-0.46-0.15-0.59-0.36c-0.22-0.35-0.12-0.81,0.21-1.04l47.37-32.82
					c0.31-0.21,0.71-0.17,0.98,0.09l4.32,4.28c0.17,0.17,0.26,0.41,0.22,0.65c-0.03,0.24-0.18,0.45-0.39,0.57l-51.7,28.54
					C378.58,225.06,378.43,225.09,378.28,225.08z M425.63,192.49l-34.38,23.82l37.52-20.72L425.63,192.49z"/>
			</g>
			<g>
				<path class="st1" d="M425.24,238.83c-0.12-0.01-0.24-0.05-0.35-0.12c-0.25-0.16-0.39-0.44-0.35-0.74l4.73-42.29
					c0.03-0.29,0.22-0.53,0.5-0.64l3.26-1.23c0.38-0.14,0.82,0.03,0.98,0.41c0.86,1.94,1.41,3.97,1.66,6.01
					c0.47,4.07-0.23,8.13-2.04,11.79c0.95,2.04,1.56,4.19,1.81,6.39c0.94,8.01-2.87,15.98-9.72,20.3
					C425.58,238.81,425.41,238.85,425.24,238.83z M430.75,196.33l-4.49,40.14c5.48-4.15,8.45-10.99,7.65-17.87
					c-0.25-2.15-0.86-4.25-1.84-6.24c-0.1-0.22-0.1-0.47,0.01-0.69c1.79-3.47,2.49-7.35,2.05-11.24c-0.2-1.66-0.62-3.31-1.25-4.9
					L430.75,196.33z"/>
			</g>
			<g>
				<path class="st1" d="M422.49,263.46c-0.06-0.01-0.13-0.02-0.19-0.04c-0.34-0.12-0.55-0.45-0.51-0.81l1.54-13.76
					c0.04-0.34,0.3-0.61,0.63-0.67c0.34-0.06,0.67,0.11,0.82,0.42l0.26,0.49c1.03,2.09,1.88,4.33,2.54,6.64
					c0.06,0.21,0.03,0.44-0.09,0.62l-4.28,6.77C423.05,263.35,422.77,263.48,422.49,263.46z M424.56,251.73l-0.86,7.72l2.31-3.65
					C425.59,254.41,425.11,253.05,424.56,251.73z"/>
			</g>
			<g>
				<path class="st1" d="M426.72,278.14c-0.32-0.03-0.59-0.24-0.67-0.56l-4.23-14.68c-0.06-0.21-0.03-0.44,0.09-0.63l4.28-6.77
					c0.16-0.25,0.48-0.39,0.76-0.35c0.3,0.04,0.55,0.25,0.63,0.55c2.04,7.16,2.02,14.73-0.05,21.88c-0.09,0.33-0.39,0.56-0.74,0.56
					C426.76,278.15,426.74,278.15,426.72,278.14z M423.39,262.81l3.34,11.6c1.15-5.47,1.09-11.13-0.19-16.58L423.39,262.81z"/>
			</g>
			<g>
				<path class="st1" d="M429.98,196.54c-0.27-0.02-0.51-0.18-0.64-0.44c-0.17-0.37-0.03-0.8,0.33-0.99l3.06-1.7
					c0.19-0.11,0.4-0.13,0.61-0.06c0.2,0.07,0.37,0.21,0.46,0.4c0.05,0.1,0.09,0.2,0.13,0.31c0.09,0.19,0.12,0.5,0.04,0.7
					c-0.08,0.2-0.2,0.44-0.41,0.51l-3.25,1.24C430.2,196.53,430.09,196.55,429.98,196.54z"/>
			</g>
			<g>
				<path class="st1" d="M132.94,92.93c-0.31-0.02-0.59-0.25-0.68-0.57c-0.1-0.4,0.12-0.81,0.51-0.93l0.56-0.18
					c0.23-0.08,0.47-0.16,0.7-0.23c1.85-2.25,3.94-4.41,6.21-6.43c0.19-0.17,0.46-0.23,0.71-0.17l11.09,2.92
					c0.34,0.09,0.58,0.41,0.57,0.76c-0.01,0.35-0.26,0.66-0.6,0.74l-18.85,4.09C133.09,92.94,133.01,92.94,132.94,92.93z
					 M140.96,86.01c-1.64,1.48-3.18,3.03-4.59,4.64l12.18-2.64L140.96,86.01z"/>
			</g>
			<g>
				<path class="st1" d="M108.26,108.5c-0.22-0.02-0.43-0.13-0.56-0.32c-0.21-0.3-0.18-0.71,0.06-0.98
					c6.84-7.29,15.49-12.75,25-15.78l18.92-4.11c0.39-0.09,0.77,0.14,0.9,0.51c0.12,0.38-0.06,0.78-0.42,0.94l-43.52,19.66
					C108.52,108.49,108.39,108.51,108.26,108.5z M144.89,90.38l-11.73,2.54c-7.85,2.5-15.14,6.74-21.25,12.35L144.89,90.38z"/>
			</g>
		</g>
		<g>
			<path class="st1" d="M211.72,141.95c-0.24,2.97-2.84,5.17-5.81,4.93c-2.97-0.24-5.18-2.84-4.94-5.81
				c0.24-2.97,2.84-5.18,5.81-4.94C209.75,136.38,211.96,138.98,211.72,141.95z"/>
			<path class="st1" d="M205.78,148.42c-3.81-0.31-6.65-3.66-6.34-7.47c0.31-3.81,3.66-6.65,7.46-6.35
				c3.81,0.31,6.66,3.66,6.35,7.47C212.94,145.88,209.59,148.73,205.78,148.42z M206.65,137.67c-2.12-0.17-3.98,1.41-4.15,3.53
				c-0.17,2.12,1.41,3.97,3.52,4.15c2.12,0.17,3.98-1.41,4.15-3.52C210.36,139.7,208.77,137.84,206.65,137.67z"/>
		</g>
		<g>
			<path class="st1" d="M248.93,99.33c-0.24,2.97-2.84,5.18-5.81,4.94c-2.97-0.24-5.18-2.84-4.93-5.81
				c0.24-2.96,2.84-5.18,5.81-4.93C246.96,93.76,249.17,96.36,248.93,99.33z"/>
			<path class="st1" d="M243,105.8c-3.81-0.31-6.65-3.66-6.34-7.47c0.31-3.81,3.65-6.65,7.46-6.34c3.81,0.31,6.66,3.66,6.35,7.46
				C250.16,103.26,246.81,106.11,243,105.8z M243.87,95.05c-2.12-0.17-3.98,1.41-4.15,3.53s1.41,3.98,3.53,4.15
				c2.11,0.17,3.98-1.41,4.15-3.53C247.57,97.08,245.98,95.22,243.87,95.05z"/>
		</g>
		<g>
			<path class="st1" d="M230.97,88.99c-0.16,1.91-1.83,3.33-3.73,3.17c-1.91-0.15-3.32-1.82-3.17-3.73
				c0.15-1.91,1.82-3.33,3.73-3.18C229.71,85.41,231.12,87.08,230.97,88.99z"/>
			<path class="st1" d="M227.11,93.69c-2.75-0.22-4.81-2.64-4.58-5.39c0.22-2.75,2.64-4.81,5.39-4.58c2.75,0.22,4.81,2.64,4.58,5.39
				C232.28,91.86,229.86,93.91,227.11,93.69z M227.67,86.79c-1.06-0.09-1.99,0.7-2.07,1.76c-0.09,1.06,0.71,1.99,1.76,2.07
				c1.06,0.08,1.99-0.71,2.08-1.76C229.52,87.8,228.73,86.87,227.67,86.79z"/>
		</g>
		<g>
			<path class="st1" d="M341.82,93.74c-0.19,2.33-2.23,4.07-4.56,3.88c-2.33-0.19-4.06-2.23-3.88-4.56
				c0.19-2.33,2.23-4.07,4.56-3.88C340.27,89.36,342.01,91.4,341.82,93.74z"/>
			<path class="st1" d="M337.13,99.15c-3.17-0.26-5.55-3.05-5.29-6.22c0.26-3.17,3.05-5.55,6.23-5.29c3.17,0.26,5.55,3.05,5.29,6.22
				C343.1,97.03,340.31,99.41,337.13,99.15z M337.82,90.7c-1.48-0.12-2.78,0.99-2.9,2.47c-0.12,1.48,0.99,2.78,2.46,2.9
				c1.48,0.12,2.79-0.98,2.91-2.47C340.41,92.13,339.3,90.82,337.82,90.7z"/>
		</g>
		<g>
			<path class="st1" d="M322.22,91.71c-0.24,2.96-2.84,5.18-5.8,4.93c-2.97-0.24-5.18-2.84-4.94-5.81c0.24-2.97,2.85-5.18,5.81-4.94
				C320.25,86.14,322.46,88.74,322.22,91.71z"/>
			<path class="st1" d="M316.29,98.18c-3.81-0.31-6.65-3.66-6.35-7.47c0.31-3.81,3.66-6.66,7.47-6.35c3.81,0.31,6.65,3.66,6.34,7.47
				C323.44,95.65,320.09,98.49,316.29,98.18z M317.16,87.44c-2.11-0.17-3.98,1.41-4.15,3.53c-0.17,2.12,1.41,3.98,3.53,4.15
				c2.12,0.17,3.98-1.41,4.15-3.53C320.85,89.47,319.28,87.61,317.16,87.44z"/>
		</g>
		<g>
			<path class="st1" d="M298.57,122.72c-0.24,2.97-2.84,5.18-5.81,4.94c-2.97-0.24-5.18-2.84-4.93-5.81
				c0.24-2.96,2.84-5.17,5.81-4.93C296.6,117.15,298.81,119.75,298.57,122.72z"/>
			<path class="st1" d="M292.63,129.19c-3.81-0.31-6.66-3.66-6.35-7.47c0.31-3.81,3.66-6.65,7.47-6.34
				c3.81,0.31,6.65,3.66,6.35,7.46C299.79,126.65,296.44,129.5,292.63,129.19z M293.51,118.44c-2.12-0.17-3.98,1.41-4.15,3.52
				c-0.17,2.12,1.41,3.98,3.53,4.15c2.11,0.17,3.97-1.41,4.14-3.53C297.2,120.47,295.62,118.61,293.51,118.44z"/>
		</g>
		<g>
			<path class="st1" d="M310.65,192.08c-0.24,2.97-2.84,5.18-5.81,4.94c-2.97-0.24-5.18-2.84-4.94-5.81
				c0.24-2.97,2.84-5.18,5.81-4.94C308.68,186.51,310.88,189.11,310.65,192.08z"/>
			<path class="st1" d="M304.71,198.54c-3.81-0.31-6.65-3.65-6.35-7.46c0.31-3.81,3.66-6.66,7.47-6.35
				c3.81,0.31,6.65,3.66,6.35,7.47C311.87,196.01,308.52,198.85,304.71,198.54z M305.58,187.8c-2.11-0.17-3.98,1.41-4.15,3.53
				c-0.17,2.12,1.41,3.98,3.53,4.15c2.11,0.17,3.98-1.41,4.15-3.53C309.28,189.83,307.7,187.97,305.58,187.8z"/>
		</g>
		<g>
			<path class="st1" d="M382.97,224.21c-0.24,2.97-2.84,5.17-5.81,4.93c-2.97-0.24-5.18-2.84-4.94-5.8
				c0.24-2.97,2.84-5.18,5.81-4.94C381,218.64,383.21,221.24,382.97,224.21z"/>
			<path class="st1" d="M377.04,230.68c-3.81-0.31-6.65-3.66-6.35-7.47c0.31-3.81,3.66-6.66,7.47-6.35
				c3.81,0.31,6.65,3.66,6.34,7.47C384.19,228.14,380.84,230.99,377.04,230.68z M377.91,219.93c-2.11-0.17-3.98,1.41-4.15,3.53
				c-0.17,2.12,1.41,3.98,3.53,4.15c2.11,0.17,3.98-1.41,4.15-3.52C381.6,221.97,380.03,220.11,377.91,219.93z"/>
		</g>
		<g>
			<path class="st1" d="M373.52,170.91c-0.24,2.97-2.84,5.18-5.81,4.94c-2.97-0.24-5.18-2.84-4.94-5.81
				c0.24-2.97,2.84-5.18,5.81-4.93C371.55,165.35,373.76,167.95,373.52,170.91z"/>
			<path class="st1" d="M367.59,177.38c-3.81-0.31-6.66-3.66-6.35-7.47c0.31-3.81,3.66-6.65,7.47-6.34
				c3.81,0.31,6.65,3.66,6.35,7.47C374.74,174.85,371.39,177.69,367.59,177.38z M368.46,166.64c-2.12-0.17-3.98,1.41-4.15,3.53
				c-0.17,2.12,1.41,3.98,3.53,4.15c2.11,0.17,3.97-1.41,4.14-3.53C372.15,168.67,370.57,166.81,368.46,166.64z"/>
		</g>
		<g>
			<path class="st1" d="M259.32,171.81c-0.24,2.97-2.84,5.18-5.81,4.94c-2.97-0.24-5.18-2.84-4.93-5.81
				c0.24-2.96,2.84-5.17,5.81-4.93C257.36,166.25,259.56,168.85,259.32,171.81z"/>
			<path class="st1" d="M253.39,178.29c-3.81-0.31-6.66-3.66-6.35-7.47c0.31-3.81,3.66-6.65,7.47-6.34
				c3.81,0.31,6.66,3.66,6.35,7.46C260.55,175.75,257.2,178.59,253.39,178.29z M254.26,167.54c-2.12-0.17-3.98,1.41-4.15,3.52
				c-0.17,2.12,1.41,3.98,3.53,4.15s3.98-1.41,4.15-3.53C257.96,169.57,256.38,167.71,254.26,167.54z"/>
		</g>
		<g>
			<path class="st1" d="M334.19,124.98c-0.24,2.97-2.84,5.18-5.81,4.93c-2.97-0.24-5.18-2.84-4.93-5.81
				c0.24-2.97,2.84-5.18,5.8-4.94C332.22,119.41,334.43,122.01,334.19,124.98z"/>
			<path class="st1" d="M328.26,131.45c-3.81-0.31-6.66-3.66-6.35-7.47c0.31-3.81,3.66-6.66,7.47-6.35
				c3.81,0.31,6.65,3.66,6.34,7.47C335.42,128.91,332.07,131.76,328.26,131.45z M329.13,120.7c-2.12-0.17-3.98,1.41-4.15,3.52
				c-0.17,2.12,1.41,3.98,3.53,4.15c2.11,0.17,3.98-1.41,4.15-3.53C332.83,122.74,331.25,120.88,329.13,120.7z"/>
		</g>
		<g>
			<path class="st1" d="M373.06,100.51c-0.21,2.54-2.44,4.44-4.98,4.23c-2.54-0.21-4.43-2.44-4.23-4.98
				c0.21-2.54,2.43-4.44,4.98-4.23C371.37,95.74,373.27,97.97,373.06,100.51z"/>
			<path class="st1" d="M367.96,106.28c-3.38-0.27-5.91-3.25-5.64-6.64c0.27-3.38,3.25-5.92,6.64-5.64
				c3.39,0.28,5.91,3.26,5.64,6.64C374.32,104.02,371.35,106.55,367.96,106.28z M368.71,97.07c-1.69-0.14-3.18,1.13-3.32,2.82
				c-0.14,1.69,1.13,3.18,2.82,3.32c1.69,0.14,3.18-1.13,3.32-2.82C371.67,98.7,370.4,97.21,368.71,97.07z"/>
		</g>
		<g>
			<path class="st1" d="M211.12,70.95c-0.24,2.97-2.84,5.18-5.81,4.94c-2.97-0.24-5.18-2.84-4.93-5.81
				c0.24-2.97,2.84-5.17,5.81-4.93C209.15,65.39,211.36,67.99,211.12,70.95z"/>
			<path class="st1" d="M205.18,77.43c-3.81-0.31-6.65-3.66-6.34-7.47c0.31-3.81,3.66-6.65,7.47-6.34c3.81,0.31,6.65,3.66,6.35,7.47
				C212.34,74.89,208.99,77.74,205.18,77.43z M206.06,66.68c-2.12-0.17-3.98,1.41-4.15,3.52c-0.17,2.12,1.41,3.98,3.52,4.15
				c2.12,0.17,3.98-1.41,4.15-3.53C209.75,68.71,208.17,66.85,206.06,66.68z"/>
		</g>
		<g>
			<path class="st1" d="M226.58,123.19c-0.24,2.97-2.84,5.18-5.81,4.94c-2.97-0.24-5.18-2.84-4.94-5.81
				c0.24-2.96,2.84-5.18,5.81-4.93C224.61,117.63,226.82,120.23,226.58,123.19z"/>
			<path class="st1" d="M220.65,129.66c-3.81-0.31-6.66-3.66-6.35-7.47c0.31-3.81,3.66-6.65,7.47-6.34
				c3.81,0.31,6.65,3.66,6.34,7.47C227.8,127.13,224.45,129.97,220.65,129.66z M221.52,118.92c-2.12-0.17-3.98,1.41-4.15,3.53
				s1.41,3.98,3.53,4.15c2.12,0.17,3.98-1.41,4.15-3.53C225.21,120.95,223.63,119.09,221.52,118.92z"/>
		</g>
		<g>
			<path class="st1" d="M334.46,265.93c-0.24,2.96-2.84,5.17-5.81,4.93c-2.96-0.24-5.18-2.84-4.93-5.8
				c0.24-2.97,2.84-5.18,5.81-4.94C332.49,260.36,334.7,262.95,334.46,265.93z"/>
			<path class="st1" d="M328.52,272.39c-3.81-0.31-6.65-3.66-6.35-7.46c0.31-3.81,3.66-6.66,7.47-6.35s6.66,3.66,6.35,7.47
				C335.68,269.85,332.33,272.7,328.52,272.39z M329.4,261.65c-2.11-0.17-3.98,1.41-4.15,3.53c-0.17,2.12,1.41,3.98,3.52,4.15
				c2.11,0.17,3.98-1.41,4.15-3.53C333.09,263.68,331.51,261.82,329.4,261.65z"/>
		</g>
		<g>
			<path class="st1" d="M297.89,269.14c-0.24,2.96-2.84,5.17-5.8,4.93c-2.97-0.24-5.18-2.84-4.93-5.8c0.24-2.98,2.84-5.18,5.81-4.94
				C295.92,263.57,298.13,266.17,297.89,269.14z"/>
			<path class="st1" d="M291.96,275.61c-3.81-0.31-6.66-3.66-6.35-7.46c0.31-3.81,3.66-6.66,7.47-6.35
				c3.81,0.31,6.65,3.66,6.35,7.47C299.12,273.06,295.76,275.91,291.96,275.61z M292.83,264.86c-2.12-0.17-3.98,1.41-4.15,3.53
				c-0.17,2.11,1.41,3.98,3.53,4.15c2.11,0.17,3.98-1.41,4.15-3.53C296.53,266.9,294.94,265.03,292.83,264.86z"/>
		</g>
		<g>
			<path class="st1" d="M229.12,277.76c-0.24,2.97-2.84,5.18-5.81,4.94c-2.97-0.24-5.18-2.84-4.93-5.81
				c0.24-2.96,2.84-5.18,5.81-4.93C227.15,272.2,229.36,274.8,229.12,277.76z"/>
			<path class="st1" d="M223.18,284.24c-3.81-0.31-6.65-3.66-6.35-7.47c0.31-3.81,3.66-6.65,7.47-6.34
				c3.81,0.31,6.66,3.66,6.35,7.46C230.34,281.7,226.99,284.54,223.18,284.24z M224.06,273.49c-2.11-0.17-3.98,1.4-4.15,3.52
				c-0.17,2.12,1.41,3.98,3.53,4.15c2.12,0.17,3.98-1.4,4.15-3.52C227.76,275.52,226.17,273.67,224.06,273.49z"/>
		</g>
		<g>
			<path class="st1" d="M384.23,260.61c-0.24,2.96-2.84,5.18-5.81,4.94c-2.97-0.24-5.17-2.85-4.93-5.81
				c0.24-2.96,2.84-5.18,5.81-4.94C382.26,255.04,384.47,257.65,384.23,260.61z"/>
			<path class="st1" d="M378.3,267.08c-3.81-0.31-6.66-3.65-6.35-7.46c0.31-3.81,3.66-6.65,7.47-6.34c3.81,0.31,6.65,3.66,6.34,7.46
				C385.46,264.55,382.11,267.39,378.3,267.08z M379.17,256.34c-2.11-0.17-3.98,1.41-4.15,3.53c-0.17,2.11,1.41,3.98,3.53,4.15
				c2.12,0.17,3.98-1.41,4.15-3.53C382.87,258.37,381.29,256.51,379.17,256.34z"/>
		</g>
		<g>
			<path class="st1" d="M195.69,251.88c-0.24,2.97-2.84,5.18-5.81,4.94c-2.97-0.24-5.18-2.84-4.94-5.81
				c0.24-2.96,2.84-5.17,5.81-4.93C193.72,246.31,195.93,248.91,195.69,251.88z"/>
			<path class="st1" d="M189.75,258.35c-3.81-0.31-6.66-3.66-6.35-7.47c0.31-3.81,3.66-6.65,7.47-6.34
				c3.81,0.31,6.65,3.65,6.34,7.46C196.91,255.81,193.56,258.66,189.75,258.35z M190.62,247.6c-2.11-0.17-3.98,1.41-4.15,3.53
				c-0.17,2.11,1.41,3.98,3.53,4.15c2.12,0.17,3.97-1.41,4.15-3.52C194.32,249.64,192.74,247.77,190.62,247.6z"/>
		</g>
		<g>
			<path class="st1" d="M215.72,232.26c-0.24,2.97-2.84,5.18-5.81,4.94c-2.96-0.24-5.18-2.84-4.93-5.81
				c0.24-2.97,2.84-5.18,5.81-4.94C213.75,226.7,215.96,229.3,215.72,232.26z"/>
			<path class="st1" d="M209.78,238.74c-3.81-0.31-6.65-3.66-6.34-7.47c0.31-3.81,3.66-6.65,7.47-6.34
				c3.81,0.31,6.66,3.65,6.35,7.47C216.94,236.2,213.59,239.04,209.78,238.74z M210.65,227.99c-2.12-0.17-3.98,1.41-4.15,3.53
				c-0.17,2.12,1.41,3.98,3.52,4.15c2.12,0.17,3.98-1.41,4.15-3.53C214.35,230.02,212.77,228.16,210.65,227.99z"/>
		</g>
		<g>
			<path class="st1" d="M163.96,190.98c-0.24,2.97-2.84,5.18-5.81,4.94c-2.97-0.24-5.18-2.84-4.93-5.81
				c0.24-2.97,2.84-5.18,5.81-4.94C162,185.42,164.2,188.02,163.96,190.98z"/>
			<path class="st1" d="M158.03,197.45c-3.81-0.31-6.65-3.66-6.35-7.47c0.31-3.81,3.66-6.65,7.47-6.34
				c3.81,0.31,6.66,3.66,6.35,7.47C165.19,194.92,161.84,197.76,158.03,197.45z M158.9,186.71c-2.12-0.17-3.98,1.41-4.15,3.53
				c-0.17,2.12,1.41,3.98,3.53,4.15c2.12,0.17,3.98-1.41,4.15-3.53C162.6,188.74,161.02,186.88,158.9,186.71z"/>
		</g>
		<g>
			<path class="st1" d="M96.15,195.27c-0.24,2.97-2.84,5.18-5.81,4.93c-2.97-0.24-5.18-2.84-4.93-5.81
				c0.24-2.97,2.84-5.18,5.81-4.94C94.19,189.7,96.4,192.3,96.15,195.27z"/>
			<path class="st1" d="M90.22,201.74c-3.81-0.31-6.66-3.66-6.35-7.47c0.31-3.81,3.66-6.66,7.47-6.35c3.81,0.31,6.66,3.66,6.35,7.47
				C97.38,199.2,94.03,202.05,90.22,201.74z M91.09,190.99c-2.12-0.17-3.98,1.41-4.15,3.53c-0.17,2.12,1.41,3.97,3.53,4.15
				c2.12,0.17,3.98-1.41,4.15-3.52C94.79,193.02,93.21,191.16,91.09,190.99z"/>
		</g>
		<g>
			<path class="st1" d="M156.84,88.44c-0.24,2.97-2.84,5.18-5.81,4.93c-2.97-0.24-5.18-2.84-4.93-5.8c0.24-2.97,2.84-5.18,5.81-4.94
				C154.87,82.87,157.08,85.47,156.84,88.44z"/>
			<path class="st1" d="M150.91,94.91c-3.81-0.31-6.65-3.66-6.34-7.46c0.31-3.81,3.66-6.66,7.46-6.35c3.81,0.31,6.66,3.66,6.35,7.47
				C158.06,92.37,154.71,95.22,150.91,94.91z M151.78,84.17c-2.11-0.17-3.98,1.41-4.15,3.53c-0.17,2.12,1.41,3.98,3.53,4.15
				c2.12,0.17,3.98-1.41,4.15-3.52C155.48,86.2,153.89,84.34,151.78,84.17z"/>
		</g>
	</g>
</g>
</svg>
