<?xml version="1.0" encoding="utf-8"?>
<!-- Generator: Adobe Illustrator 25.2.3, SVG Export Plug-In . SVG Version: 6.00 Build 0)  -->
<svg version="1.1" id="Layer_1" xmlns="http://www.w3.org/2000/svg" xmlns:xlink="http://www.w3.org/1999/xlink" x="0px" y="0px"
	 viewBox="0 0 32 32" style="enable-background:new 0 0 32 32;" xml:space="preserve">
<style type="text/css">
	.st0{filter:url(#Adobe_OpacityMaskFilter);}
	.st1{filter:url(#Adobe_OpacityMaskFilter_1_);}
	.st2{mask:url(#SVGID_1_);fill:url(#SVGID_2_);}
	.st3{opacity:0.8;fill:url(#SVGID_3_);}
	.st4{fill:url(#SVGID_4_);}
</style>
<g>
	<defs>
		<filter id="Adobe_OpacityMaskFilter" filterUnits="userSpaceOnUse" x="1" y="1.4" width="30" height="29.1">
			<feFlood  style="flood-color:white;flood-opacity:1" result="back"/>
			<feBlend  in="SourceGraphic" in2="back" mode="normal"/>
		</filter>
	</defs>
	<mask maskUnits="userSpaceOnUse" x="1" y="1.4" width="30" height="29.1" id="SVGID_1_">
		<g class="st0">
			<defs>
				<filter id="Adobe_OpacityMaskFilter_1_" filterUnits="userSpaceOnUse" x="1" y="1.4" width="30" height="29.1">
					<feFlood  style="flood-color:white;flood-opacity:1" result="back"/>
					<feBlend  in="SourceGraphic" in2="back" mode="normal"/>
				</filter>
			</defs>
			<mask maskUnits="userSpaceOnUse" x="1" y="1.4" width="30" height="29.1" id="SVGID_1_">
				<g class="st1">
				</g>
			</mask>
			
				<radialGradient id="SVGID_2_" cx="-151.1597" cy="159.4755" r="13.9218" gradientTransform="matrix(0 1.9406 -2 0 348.8104 293.9823)" gradientUnits="userSpaceOnUse">
				<stop  offset="0.1751" style="stop-color:#FFFFFF"/>
				<stop  offset="0.2696" style="stop-color:#D3D3D3"/>
				<stop  offset="0.4393" style="stop-color:#898989"/>
				<stop  offset="0.5914" style="stop-color:#4E4E4E"/>
				<stop  offset="0.7202" style="stop-color:#242424"/>
				<stop  offset="0.8208" style="stop-color:#0A0A0A"/>
				<stop  offset="0.8807" style="stop-color:#000000"/>
			</radialGradient>
			<ellipse class="st2" cx="16" cy="16" rx="15" ry="14.6"/>
		</g>
	</mask>
	
		<radialGradient id="SVGID_3_" cx="-151.1597" cy="159.4755" r="13.9218" gradientTransform="matrix(0 1.9406 -2 0 348.8104 293.9823)" gradientUnits="userSpaceOnUse">
		<stop  offset="0.1751" style="stop-color:#FBA1D4"/>
		<stop  offset="0.8807" style="stop-color:#FBA1D4"/>
	</radialGradient>
	<ellipse class="st3" cx="16" cy="16" rx="15" ry="14.6"/>
	
		<linearGradient id="SVGID_4_" gradientUnits="userSpaceOnUse" x1="-142.3837" y1="203.903" x2="-142.3837" y2="124.8171" gradientTransform="matrix(0 1 -1 0 182.4052 159.2489)">
		<stop  offset="0.3274" style="stop-color:#64C6CE"/>
		<stop  offset="0.5406" style="stop-color:#FBA1D4"/>
	</linearGradient>
	<path class="st4" d="M29.7,22c-2.1,1.1-4.5,1.7-7.1,1.7c-8.3,0-15-6.5-15-14.6c0-2.1,0.5-4.2,1.3-6C4.2,5.6,1,10.5,1,16
		c0,8,6.7,14.6,15,14.6C22.1,30.6,27.3,27,29.7,22z"/>
</g>
</svg>
